<svg width="582" height="479" viewBox="0 0 582 479" fill="none" xmlns="http://www.w3.org/2000/svg">
<path d="M2.99999 131.318L2.99999 350.318" stroke="#A98AFF" stroke-width="4" stroke-linecap="round" stroke-linejoin="round" stroke-dasharray="17 17"/>
<path d="M280 2.81757L280 69.8176" stroke="#A98AFF" stroke-width="4" stroke-linecap="round" stroke-linejoin="round" stroke-dasharray="17 17"/>
<path d="M580 124.818L580 349.818" stroke="#A98AFF" stroke-width="4" stroke-linecap="round" stroke-linejoin="round" stroke-dasharray="17 17"/>
<path d="M61 323.318L5.26695 348.383C1.31462 350.16 1.34076 355.781 5.30947 357.522L271.493 474.267C279.079 477.595 287.704 477.637 295.323 474.384L576.689 354.244C580.794 352.492 580.72 346.648 576.573 344.999L517 321.318" stroke="#A98AFF" stroke-width="4" stroke-linecap="round" stroke-linejoin="round" stroke-dasharray="17 17"/>
<path opacity="0.75" d="M273.22 213.476C280.741 210.138 289.303 210.037 296.901 213.195L522.256 306.855C526.342 308.553 526.37 314.332 522.3 316.07L294.94 413.15C287.322 416.403 278.697 416.361 271.11 413.033L56.3793 318.854C52.3997 317.109 52.3876 311.468 56.3596 309.705L273.22 213.476Z" fill="#7858D5"/>
<path opacity="0.85" d="M273.22 146.26C280.741 142.923 289.303 142.821 296.901 145.979L522.256 239.639C526.342 241.338 526.37 247.117 522.3 248.855L294.94 345.935C287.322 349.188 278.697 349.146 271.11 345.818L56.3793 251.639C52.3997 249.894 52.3876 244.252 56.3596 242.49L273.22 146.26Z" fill="#7858D5"/>
<path opacity="0.95" d="M273.22 79.045C280.741 75.7075 289.303 75.6059 296.901 78.7639L522.256 172.424C526.342 174.123 526.37 179.902 522.3 181.64L294.94 278.719C287.322 281.972 278.697 281.93 271.11 278.603L56.3793 184.424C52.3997 182.678 52.3876 177.037 56.3596 175.274L273.22 79.045Z" fill="#7858D5"/>
<path d="M274.036 4.36316C281.557 1.02568 290.119 0.924023 297.717 4.08201L576.886 120.108C580.973 121.807 581 127.586 576.93 129.324L295.323 249.566C287.704 252.819 279.079 252.777 271.493 249.45L5.3793 132.735C1.39973 130.989 1.38758 125.348 5.35959 123.585L274.036 4.36316Z" stroke="#A98AFF" stroke-width="4" stroke-linecap="round" stroke-linejoin="round" stroke-dasharray="17 17"/>
<path d="M289 251.818L289 476.318" stroke="#A98AFF" stroke-width="4" stroke-linecap="round" stroke-linejoin="round" stroke-dasharray="17 17"/>
</svg>
